<svg width="27" height="11" viewBox="0 0 27 11" fill="none" xmlns="http://www.w3.org/2000/svg">
<path d="M24.5 7.00012C25.6046 7.00012 26.5 7.89555 26.5 9.00012C26.5 10.1047 25.6046 11.0001 24.5 11.0001L2.5 11.0001C1.39543 11.0001 0.5 10.1047 0.5 9.00012C0.5 7.89555 1.39543 7.00012 2.5 7.00012L24.5 7.00012Z" fill="#5E6B7E"/>
<path d="M25.5711 7.24265C26.3522 8.0237 26.3522 9.29003 25.5711 10.0711C24.7901 10.8521 23.5238 10.8521 22.7427 10.0711L16.9143 4.24265C16.1332 3.4616 16.1332 2.19527 16.9143 1.41422C17.6953 0.633172 18.9617 0.633172 19.7427 1.41422L25.5711 7.24265Z" fill="#5E6B7E"/>
</svg>
