<svg width="81" height="61" viewBox="0 0 81 61" fill="none" xmlns="http://www.w3.org/2000/svg">
<path d="M34.0659 60.0976C15.0667 57.067 0.613342 40.6321 0.613342 20.7588C0.613342 15.1639 1.77894 9.86044 3.87701 5.02322L8.65595 2.34235C9.87982 1.64299 11.2203 1.00192 12.5024 0.36084C8.30627 6.07225 5.85852 13.1241 5.85852 20.7588C5.85852 37.6599 17.9807 51.7053 33.9494 54.7358C33.9494 57.5915 34.0076 59.1651 34.0659 60.0976ZM77.0181 5.02322L72.2392 2.34235C71.0153 1.64299 69.6748 1.00192 68.3927 0.36084C72.5888 6.07225 75.0366 13.1241 75.0366 20.7588C75.0366 37.6599 62.9144 51.7053 46.9457 54.7358C46.9457 57.5915 46.8875 59.1068 46.8292 60.0393C65.8284 57.0087 80.2817 40.5739 80.2817 20.7005C80.2817 15.1639 79.1162 9.86044 77.0181 5.02322Z" fill="white"/>
</svg>
