<svg width="61" height="56" viewBox="0 0 61 56" fill="none" xmlns="http://www.w3.org/2000/svg">
<path d="M60.3742 25.8173C60.3742 40.0958 50.3501 52.0432 36.9458 55.0154C36.9458 54.8989 36.9458 54.724 36.9458 54.6075C36.9458 53.6167 36.9458 52.626 36.9458 51.5186C48.4852 48.6629 56.994 38.2309 56.994 25.8173C56.994 13.8699 49.068 3.78753 38.2279 0.465588C38.2862 0.290749 45.0467 0.873545 48.1938 1.74774C55.5953 7.16776 60.3742 15.968 60.3742 25.8173ZM12.7014 1.74774C5.29987 7.16776 0.520935 15.968 0.520935 25.8173C0.520935 40.0958 10.5451 52.0432 23.9494 55.0154C23.9494 54.8989 23.9494 54.724 23.9494 54.6075C23.9494 53.6167 23.9494 52.626 23.9494 51.5186C12.41 48.6629 3.90116 38.2309 3.90116 25.8173C3.90116 13.8699 11.8272 3.78753 22.6672 0.465588C22.6672 0.349029 15.9068 0.931825 12.7014 1.74774Z" fill="white"/>
</svg>
