<svg width="33" height="32" viewBox="0 0 33 32" fill="none" xmlns="http://www.w3.org/2000/svg">
<path d="M6.89455 0.585786C7.26962 0.210714 7.77833 0 8.30876 0H10.6287C10.9851 0 11.1636 0.430857 10.9116 0.682843L1.18284 10.4116C0.930857 10.6636 0.500001 10.4851 0.500001 10.1287L0.500001 7.80876C0.500001 7.27833 0.710715 6.76962 1.08579 6.39455L6.89455 0.585786Z" fill="#5E6B7E"/>
<path d="M1.08579 25.9156C0.710714 25.5406 0.5 25.0319 0.5 24.5014L0.5 22.1815C0.5 21.8251 0.930857 21.6466 1.18284 21.8986L10.6014 31.3172C10.8534 31.5691 10.6749 32 10.3185 32H7.99857C7.46813 32 6.95943 31.7893 6.58435 31.4142L1.08579 25.9156Z" fill="#5E6B7E"/>
<path d="M26.7258 31.4142C26.3507 31.7893 25.842 32 25.3115 32H22.9916C22.6352 32 22.4567 31.5691 22.7087 31.3172L31.8172 22.2087C32.0691 21.9567 32.5 22.1352 32.5 22.4916V24.8115C32.5 25.342 32.2893 25.8507 31.9142 26.2258L26.7258 31.4142Z" fill="#5E6B7E"/>
<path d="M32.5 7.49866C32.5 6.96823 32.2893 6.45952 31.9142 6.08445L26.4156 0.585787C26.0405 0.210714 25.5318 0 25.0013 0H22.6814C22.325 0 22.1465 0.430857 22.3985 0.682843L31.8172 10.1015C32.0691 10.3534 32.5 10.175 32.5 9.81862V7.49866Z" fill="#5E6B7E"/>
<path d="M19.4091 23.7654C19.4091 24.1217 19.8399 24.3002 20.0919 24.0482L27.3045 16.8357C27.695 16.4451 27.695 15.812 27.3045 15.4214L20.0919 8.20887C19.8399 7.95689 19.4091 8.13535 19.4091 8.49172L19.4091 10.8117C19.4091 11.3421 19.6198 11.8508 19.9949 12.2259L23.1904 15.4214C23.5809 15.812 23.5809 16.4451 23.1904 16.8357L19.9949 20.0312C19.6198 20.4063 19.4091 20.915 19.4091 21.4454L19.4091 23.7654Z" fill="#5E6B7E"/>
<path d="M13.5909 11.1218C13.5909 11.6523 13.3802 12.161 13.0051 12.536L10.1197 15.4214C9.72918 15.812 9.72918 16.4451 10.1197 16.8357L13.0051 19.7211C13.3802 20.0961 13.5909 20.6049 13.5909 21.1353L13.5909 23.4553C13.5909 23.8116 13.16 23.9901 12.9081 23.7381L6.00562 16.8357C5.6151 16.4451 5.6151 15.812 6.00563 15.4214L12.908 8.51903C13.16 8.26704 13.5909 8.44551 13.5909 8.80187L13.5909 11.1218Z" fill="#5E6B7E"/>
</svg>
