<svg width="41" height="41" viewBox="0 0 41 41" fill="none" xmlns="http://www.w3.org/2000/svg">
<circle r="3" transform="matrix(-1 0 0 1 25.5 15.0386)" fill="#121212"/>
<circle r="3" transform="matrix(-1 0 0 1 15.5 15.0386)" fill="#121212"/>
<circle r="3" transform="matrix(-1 0 0 1 25.5 25.0386)" fill="#121212"/>
<circle r="3" transform="matrix(-1 0 0 1 15.5 25.0386)" fill="#121212"/>
<mask id="path-5-inside-1_48_862" fill="white">
<path d="M13.299 0.624363C13.674 0.24929 14.1828 0.0385742 14.7132 0.0385742H38.5C39.6046 0.0385742 40.5 0.934005 40.5 2.03857V38.0386C40.5 39.1431 39.6046 40.0386 38.5 40.0386H2.5C1.39543 40.0386 0.5 39.1431 0.5 38.0386V14.2518C0.5 13.7213 0.710712 13.2126 1.08578 12.8376L13.299 0.624363Z"/>
</mask>
<path d="M1.08578 12.8376L-0.328426 11.4233L1.08578 12.8376ZM38.5 2.03857H14.7132V-1.96143H38.5V2.03857ZM38.5 38.0386V2.03857H42.5V38.0386H38.5ZM2.5 38.0386H38.5V42.0386H2.5V38.0386ZM2.5 14.2518V38.0386H-1.5V14.2518H2.5ZM-0.328426 11.4233L11.8848 -0.78985L14.7132 2.03858L2.5 14.2518L-0.328426 11.4233ZM-1.5 14.2518C-1.5 13.1909 -1.07857 12.1735 -0.328426 11.4233L2.5 14.2518H-1.5ZM2.5 42.0386C0.290863 42.0386 -1.5 40.2477 -1.5 38.0386H2.5V42.0386ZM42.5 38.0386C42.5 40.2477 40.7091 42.0386 38.5 42.0386V38.0386H38.5H42.5ZM14.7132 2.03857L14.7132 2.03858L11.8848 -0.78985C12.6349 -1.53999 13.6523 -1.96143 14.7132 -1.96143V2.03857ZM38.5 -1.96143C40.7091 -1.96143 42.5 -0.170564 42.5 2.03857H38.5V2.03857V-1.96143Z" fill="#FFC700" mask="url(#path-5-inside-1_48_862)"/>
</svg>
