<svg width="328" height="40" viewBox="0 0 328 40" fill="none" xmlns="http://www.w3.org/2000/svg">
<rect width="40" height="40" rx="20" fill="#222325"/>
<g clip-path="url(#clip0_2_4581)">
<path d="M18.4464 18.6202C18.2076 18.6398 17.9849 18.7486 17.8225 18.9248C17.6602 19.1011 17.5701 19.3319 17.5701 19.5716C17.5701 19.8112 17.6602 20.0421 17.8225 20.2184C17.9849 20.3946 18.2076 20.5034 18.4464 20.523C18.5666 20.5186 18.6848 20.4904 18.794 20.4401C18.9032 20.3898 19.0014 20.3184 19.0829 20.2299C19.1644 20.1415 19.2276 20.0378 19.2687 19.9248C19.3099 19.8118 19.3283 19.6917 19.3229 19.5716C19.3288 19.4513 19.3107 19.3311 19.2696 19.2179C19.2286 19.1047 19.1655 19.0009 19.0839 18.9123C19.0024 18.8238 18.904 18.7523 18.7945 18.7022C18.6851 18.652 18.5668 18.6241 18.4464 18.6202ZM21.575 18.6202C21.3835 18.6044 21.1917 18.6468 21.0247 18.7418C20.8577 18.8369 20.7233 18.9801 20.6389 19.1527C20.5546 19.3254 20.5244 19.5195 20.5522 19.7096C20.58 19.8997 20.6645 20.0771 20.7947 20.2184C20.9248 20.3597 21.0946 20.4585 21.2819 20.5017C21.4691 20.545 21.665 20.5307 21.844 20.4609C22.023 20.391 22.1767 20.2687 22.2851 20.1101C22.3935 19.9514 22.4514 19.7637 22.4514 19.5716C22.4569 19.4516 22.4386 19.3317 22.3975 19.2189C22.3565 19.106 22.2935 19.0024 22.2123 18.914C22.131 18.8255 22.033 18.7541 21.924 18.7036C21.8151 18.6532 21.6972 18.6248 21.5772 18.6202H21.575Z" fill="#808080"/>
<path d="M25.7429 11.4285H14.2572C14.0257 11.429 13.7965 11.4752 13.5829 11.5644C13.3693 11.6536 13.1753 11.784 13.0121 11.9482C12.8489 12.1124 12.7197 12.3071 12.6318 12.5213C12.544 12.7354 12.4992 12.9648 12.5 13.1963V24.7828C12.4992 25.0142 12.544 25.2436 12.6318 25.4578C12.7197 25.672 12.8489 25.8667 13.0121 26.0309C13.1753 26.1951 13.3693 26.3255 13.5829 26.4147C13.7965 26.5039 14.0257 26.55 14.2572 26.5506H23.9772L23.5229 24.9649L24.62 25.9828L25.6572 26.9428L27.5 28.5713V13.1963C27.5009 12.9648 27.4561 12.7354 27.3682 12.5213C27.2803 12.3071 27.1511 12.1124 26.9879 11.9482C26.8247 11.784 26.6307 11.6536 26.4171 11.5644C26.2035 11.4752 25.9744 11.429 25.7429 11.4285V11.4285ZM22.4343 22.6249C22.4343 22.6249 22.1257 22.2563 21.8686 21.9285C22.4903 21.7832 23.0407 21.4226 23.4222 20.9106C23.1137 21.1159 22.7831 21.2855 22.4364 21.4163C22.0377 21.5865 21.6207 21.7102 21.1936 21.7849C20.4595 21.9201 19.7066 21.9171 18.9736 21.7763C18.5432 21.6921 18.1215 21.5687 17.7136 21.4078C17.3691 21.2742 17.0401 21.1039 16.7322 20.8999C17.099 21.4016 17.6295 21.7593 18.2322 21.9113C17.975 22.237 17.6579 22.6228 17.6579 22.6228C17.1487 22.6365 16.644 22.5249 16.1881 22.2977C15.7322 22.0705 15.3392 21.7347 15.0436 21.3199C15.0707 19.5824 15.492 17.8737 16.2757 16.3228C16.9666 15.7802 17.809 15.4657 18.6864 15.4228L18.7722 15.5256C17.9474 15.7297 17.1777 16.1131 16.5179 16.6485C16.5179 16.6485 16.7064 16.5456 17.0236 16.3999C17.6404 16.1184 18.2978 15.9362 18.9714 15.8599C19.0194 15.85 19.0682 15.8442 19.1172 15.8428C19.6915 15.7679 20.2728 15.7622 20.8486 15.8256C21.754 15.929 22.6305 16.2086 23.4286 16.6485C22.8022 16.1386 22.0748 15.7676 21.2943 15.5599L21.4143 15.4228C22.2917 15.4657 23.1341 15.7802 23.825 16.3228C24.6087 17.8737 25.03 19.5824 25.0572 21.3199C24.7594 21.7347 24.3648 22.0704 23.9076 22.2978C23.4505 22.5252 22.9447 22.6375 22.4343 22.6249Z" fill="#808080"/>
</g>
<rect x="72" width="40" height="40" rx="20" fill="#222325"/>
<g clip-path="url(#clip1_2_4581)">
<path d="M100.572 14.6966C99.9287 14.9645 99.2858 15.1787 98.5358 15.2323C99.2858 14.8037 99.8216 14.1073 100.089 13.3037C99.393 13.7323 98.643 14.0002 97.8394 14.1609C97.1966 13.4645 96.2858 13.0359 95.3216 13.0359C93.393 13.0359 91.7858 14.5895 91.7858 16.5716C91.7858 16.8395 91.8394 17.1073 91.893 17.3752C88.9466 17.2145 86.3751 15.8216 84.6073 13.6787C84.2858 14.2145 84.1251 14.8037 84.1251 15.4466C84.1251 16.6787 84.768 17.7502 85.6787 18.393C85.0894 18.393 84.5537 18.2323 84.0716 17.9645V18.018C84.0716 19.7323 85.3037 21.1252 86.9108 21.4466C86.5894 21.5002 86.3216 21.5537 86.0001 21.5537C85.7858 21.5537 85.5716 21.5537 85.3573 21.5002C85.7858 22.893 87.1251 23.9109 88.6251 23.9645C87.4466 24.9287 85.893 25.4645 84.2323 25.4645C83.9644 25.4645 83.643 25.4645 83.3751 25.4109C84.9823 26.3752 86.8573 26.9645 88.8394 26.9645C95.3216 26.9645 98.8573 21.6073 98.8573 16.9466C98.8573 16.7859 98.8573 16.6252 98.8573 16.518C99.5001 15.9823 100.089 15.393 100.572 14.6966Z" fill="#808080"/>
</g>
<rect x="144" width="40" height="40" rx="20" fill="#222325"/>
<g clip-path="url(#clip2_2_4581)">
<path d="M164 22.7142C165.499 22.7142 166.714 21.499 166.714 19.9999C166.714 18.5009 165.499 17.2856 164 17.2856C162.501 17.2856 161.286 18.5009 161.286 19.9999C161.286 21.499 162.501 22.7142 164 22.7142Z" fill="#808080"/>
<path d="M167.392 11.8572H160.606C157.988 11.8572 155.857 13.9886 155.857 16.6079V23.3936C155.857 26.0122 157.988 28.1429 160.608 28.1429H167.393C170.012 28.1429 172.143 26.0115 172.143 23.3922V16.6065C172.143 13.9879 170.011 11.8572 167.392 11.8572ZM164 24.0715C161.755 24.0715 159.928 22.2454 159.928 20C159.928 17.7546 161.755 15.9286 164 15.9286C166.245 15.9286 168.071 17.7546 168.071 20C168.071 22.2454 166.245 24.0715 164 24.0715ZM168.75 15.9286C168.375 15.9286 168.071 15.6246 168.071 15.25C168.071 14.8755 168.375 14.5715 168.75 14.5715C169.124 14.5715 169.428 14.8755 169.428 15.25C169.428 15.6246 169.124 15.9286 168.75 15.9286Z" fill="#808080"/>
</g>
<rect x="216" width="40" height="40" rx="20" fill="#222325"/>
<g clip-path="url(#clip3_2_4581)">
<path d="M244.537 13.2334C244.523 13.1701 244.493 13.1117 244.449 13.0639C244.405 13.0162 244.349 12.981 244.288 12.9618C244.062 12.9174 243.83 12.9341 243.613 13.01C243.613 13.01 228.593 18.4084 227.736 19.0063C227.55 19.1348 227.489 19.2093 227.458 19.2977C227.31 19.723 227.771 19.9105 227.771 19.9105L231.643 21.1722C231.708 21.1835 231.775 21.1794 231.839 21.1604C232.719 20.6043 240.699 15.5654 241.16 15.3961C241.232 15.3741 241.286 15.3961 241.274 15.4497C241.086 16.0957 234.195 22.2195 234.157 22.257C234.138 22.2721 234.124 22.2916 234.114 22.3136C234.105 22.3356 234.101 22.3596 234.103 22.3834L233.743 26.1607C233.743 26.1607 233.592 27.3393 234.768 26.1607C235.603 25.3255 236.403 24.6345 236.804 24.2986C238.135 25.2173 239.568 26.2336 240.186 26.7629C240.289 26.8635 240.412 26.9423 240.547 26.9944C240.682 27.0465 240.825 27.0709 240.97 27.0661C241.559 27.0436 241.72 26.3991 241.72 26.3991C241.72 26.3991 244.456 15.3875 244.548 13.9116C244.557 13.767 244.569 13.6743 244.57 13.5752C244.575 13.4602 244.564 13.3452 244.537 13.2334Z" fill="#808080"/>
</g>
<rect x="288" width="40" height="40" rx="20" fill="#222325"/>
<g clip-path="url(#clip4_2_4581)">
<path d="M306.105 28.036V21.0717H303.714V17.8575H306.105V15.6128C306.105 13.1677 307.653 11.9646 309.834 11.9646C310.879 11.9646 311.777 12.0424 312.038 12.0772V14.6324L310.526 14.6331C309.339 14.6331 309.071 15.1968 309.071 16.024V17.8575H312.286L311.214 21.0717H309.071V28.036H306.105Z" fill="#808080"/>
</g>
<defs>
<clipPath id="clip0_2_4581">
<rect width="17.1429" height="17.1429" fill="white" transform="translate(11.4286 11.4285)"/>
</clipPath>
<clipPath id="clip1_2_4581">
<rect width="17.1429" height="17.1429" fill="white" transform="translate(83.4286 11.4285)"/>
</clipPath>
<clipPath id="clip2_2_4581">
<rect width="17.1429" height="17.1429" fill="white" transform="translate(155.429 11.4285)"/>
</clipPath>
<clipPath id="clip3_2_4581">
<rect width="17.1429" height="17.1429" fill="white" transform="translate(227.429 11.4285)"/>
</clipPath>
<clipPath id="clip4_2_4581">
<rect width="17.1429" height="17.1429" fill="white" transform="translate(299.429 11.4285)"/>
</clipPath>
</defs>
</svg>
