<svg width="1744" height="700" viewBox="0 0 1744 700" fill="none" xmlns="http://www.w3.org/2000/svg">
<path opacity="0.04" d="M1457.3 -175.874L1457.31 -175.869L1702.21 95.5886C1739.17 136.553 1751.35 194.176 1734.14 246.594L1620.07 593.949L1620.07 593.956L1507.43 941.775C1490.43 994.263 1446.62 1033.63 1392.62 1044.93L1034.77 1119.82L1034.76 1119.82L677.223 1196.19C623.268 1207.71 567.274 1189.45 530.485 1148.33L286.699 875.874L286.694 875.868L41.7927 604.41C4.83542 563.446 -7.34787 505.823 9.86517 453.405L123.929 106.05L123.932 106.043L236.57 -241.776C253.568 -294.264 297.379 -333.627 351.381 -344.929L709.231 -419.823L709.238 -419.825L1066.78 -496.187C1120.73 -507.71 1176.73 -489.45 1213.52 -448.334L1457.3 -175.874Z" stroke="#FFC700" stroke-width="3.64018"/>
</svg>
