<svg width="1216" height="700" viewBox="0 0 1216 700" fill="none" xmlns="http://www.w3.org/2000/svg">
<path opacity="0.04" d="M1017.99 -18.3688L1018 -18.3633L1018 -18.3577L1172.35 152.733C1208.87 193.213 1220.91 250.154 1203.9 301.951L1132.01 520.878L1132.01 520.885L1132.01 520.892L1061.02 740.111C1044.22 791.978 1000.93 830.875 947.564 842.043L722.022 889.247L722.015 889.248L722.008 889.25L496.662 937.378C443.345 948.765 388.014 930.721 351.66 890.092L198.01 718.369L198.005 718.364L198 718.358L43.6467 547.267C7.12688 506.787 -4.91211 449.847 12.0972 398.049L83.9882 179.123L83.9905 179.116L83.9928 179.109L154.985 -40.1107C171.782 -91.9779 215.074 -130.874 268.437 -142.042L493.978 -189.246L493.986 -189.248L493.993 -189.249L719.339 -237.378C772.655 -248.765 827.987 -230.721 864.34 -190.091L1017.99 -18.3688Z" stroke="#FFC700" stroke-width="7.28036"/>
</svg>
