<svg width="482" height="474" viewBox="0 0 482 474" fill="none" xmlns="http://www.w3.org/2000/svg">
<path d="M265.412 2.49193C300.019 -4.89922 335.933 6.8128 359.53 33.1845L407.803 87.1352L456.296 140.888C480.001 167.162 487.815 204.121 476.775 237.742L454.188 306.523L431.884 375.396C420.982 409.062 392.882 434.308 358.245 441.557L287.386 456.388L216.588 471.508C181.982 478.899 146.067 467.187 122.471 440.816L74.198 386.865L25.7042 333.113C1.99995 306.838 -5.81431 269.879 5.22609 236.258L27.8124 167.478L50.1163 98.6045C61.0187 64.9387 89.1188 39.692 123.755 32.4428L194.615 17.6126L265.412 2.49193Z" fill="#101010"/>
</svg>
