<svg width="17" height="41" viewBox="0 0 17 41" fill="none" xmlns="http://www.w3.org/2000/svg">
<path d="M15.3651 12.9454L14.6826 13.6762V13.6762L15.3651 12.9454ZM3.19165 1.57571L3.87422 0.844885V0.844884L3.19165 1.57571ZM15 14.407V37.0398H17V14.407H15ZM16.0477 12.2146L3.87422 0.844885L2.50908 2.30653L14.6826 13.6762L16.0477 12.2146ZM0 2.03735H1.82651V0.0373535H0V2.03735ZM14 38.0398H0V40.0398H14V38.0398ZM17 14.407C17 13.5758 16.6552 12.7819 16.0477 12.2146L14.6826 13.6762C14.8851 13.8653 15 14.13 15 14.407H17ZM15 37.0398C15 37.5921 14.5523 38.0398 14 38.0398V40.0398C15.6569 40.0398 17 38.6966 17 37.0398H15ZM3.87422 0.844884C3.31862 0.325977 2.58674 0.0373535 1.82651 0.0373535V2.03735C2.07992 2.03735 2.32388 2.13356 2.50908 2.30653L3.87422 0.844884Z" fill="#FFC700"/>
</svg>
