<svg width="17" height="42" viewBox="0 0 17 42" fill="none" xmlns="http://www.w3.org/2000/svg">
<path d="M15.3652 13.9068L14.6826 14.6376V14.6376L15.3652 13.9068ZM3.19168 2.53713L3.87425 1.80631V1.80631L3.19168 2.53713ZM15 15.3685V38.0012H17V15.3685H15ZM16.0477 13.176L3.87425 1.80631L2.50911 3.26796L14.6826 14.6376L16.0477 13.176ZM3.05176e-05 2.99878H1.82655V0.998779H3.05176e-05V2.99878ZM14 39.0012H3.05176e-05V41.0012H14V39.0012ZM17 15.3685C17 14.5373 16.6552 13.7433 16.0477 13.176L14.6826 14.6376C14.8851 14.8267 15 15.0914 15 15.3685H17ZM15 38.0012C15 38.5535 14.5523 39.0012 14 39.0012V41.0012C15.6569 41.0012 17 39.6581 17 38.0012H15ZM3.87425 1.80631C3.31865 1.2874 2.58677 0.998779 1.82655 0.998779V2.99878C2.07996 2.99878 2.32391 3.09499 2.50911 3.26796L3.87425 1.80631Z" fill="#FFC700"/>
</svg>
