<svg width="17" height="41" viewBox="0 0 17 41" fill="none" xmlns="http://www.w3.org/2000/svg">
<path d="M15.3652 12.984L14.6826 13.7148V13.7148L15.3652 12.984ZM3.19168 1.61428L3.87425 0.883459V0.883459L3.19168 1.61428ZM15 14.4456V37.0784H17V14.4456H15ZM16.0477 12.2531L3.87425 0.883459L2.50911 2.3451L14.6826 13.7148L16.0477 12.2531ZM3.05176e-05 2.07593H1.82655V0.0759277H3.05176e-05V2.07593ZM14 38.0784H3.05176e-05V40.0784H14V38.0784ZM17 14.4456C17 13.6144 16.6552 12.8205 16.0477 12.2531L14.6826 13.7148C14.8851 13.9039 15 14.1685 15 14.4456H17ZM15 37.0784C15 37.6307 14.5523 38.0784 14 38.0784V40.0784C15.6569 40.0784 17 38.7352 17 37.0784H15ZM3.87425 0.883459C3.31865 0.364551 2.58677 0.0759277 1.82655 0.0759277V2.07593C2.07996 2.07593 2.32391 2.17214 2.50911 2.3451L3.87425 0.883459Z" fill="#FFC700"/>
</svg>
