<svg width="18" height="42" viewBox="0 0 18 42" fill="none" xmlns="http://www.w3.org/2000/svg">
<path d="M15.8652 13.9068L15.1826 14.6376V14.6376L15.8652 13.9068ZM3.69168 2.53713L4.37425 1.80631V1.80631L3.69168 2.53713ZM15.5 15.3685V38.0012H17.5V15.3685H15.5ZM16.5477 13.176L4.37425 1.80631L3.00911 3.26796L15.1826 14.6376L16.5477 13.176ZM0.500031 2.99878H2.32655V0.998779H0.500031V2.99878ZM14.5 39.0012H0.500031V41.0012H14.5V39.0012ZM17.5 15.3685C17.5 14.5373 17.1552 13.7433 16.5477 13.176L15.1826 14.6376C15.3851 14.8267 15.5 15.0914 15.5 15.3685H17.5ZM15.5 38.0012C15.5 38.5535 15.0523 39.0012 14.5 39.0012V41.0012C16.1569 41.0012 17.5 39.6581 17.5 38.0012H15.5ZM4.37425 1.80631C3.81865 1.2874 3.08677 0.998779 2.32655 0.998779V2.99878C2.57996 2.99878 2.82391 3.09499 3.00911 3.26796L4.37425 1.80631Z" fill="#FFC700"/>
</svg>
