<svg width="24" height="24" fill="none" xmlns="http://www.w3.org/2000/svg" color="text" class="sc-8a800401-0 cziRfP"><path d="M4.605 10.068 10.048 1v6.773l-5.443 2.295Z" fill="url(#a)"/><path d="M15.49 10.068 10.046 1v6.773l5.442 2.295Z" fill="url(#b)"/><path d="M10.048 7.754 4.605 10.05l5.443 3.177V7.754Z" fill="url(#c)"/><path d="m10.047 7.754 5.442 2.296-5.442 3.177V7.754Z" fill="url(#d)"/><path d="m4.605 11.11 5.443 7.889v-4.712l-5.443-3.178Z" fill="url(#e)"/><path d="m15.49 11.11-5.443 7.889v-4.712l5.442-3.178Z" fill="url(#f)"/><path fill-rule="evenodd" clip-rule="evenodd" d="m7.32 11.403-.297-5.405.179-.01.296 5.405-.178.01ZM12.46 11.393l.297-5.405.179.01-.297 5.405-.178-.01Z" fill="#B0B4E9"/><path fill-rule="evenodd" clip-rule="evenodd" d="m7.34 11.299 2.645-3.565.143.107-2.645 3.564-.143-.106Z" fill="#B0B4E9"/><path fill-rule="evenodd" clip-rule="evenodd" d="M12.527 11.405 9.883 7.841l.143-.107 2.645 3.565-.143.107Z" fill="#B0B4E9"/><path d="M7.13 6.71a.67.67 0 1 0 0-1.339.67.67 0 0 0 0 1.339Z" fill="url(#g)"/><path d="M7.597 5.788c-.035.04-.127.015-.205-.055-.078-.07-.113-.16-.077-.199.035-.04.127-.014.205.056.078.07.113.159.077.198Z" fill="url(#h)"/><path d="M7.412 12.018a.67.67 0 1 0 0-1.338.67.67 0 0 0 0 1.338Z" fill="url(#i)"/><path d="M7.879 11.097c-.036.04-.128.014-.206-.056-.078-.07-.112-.159-.077-.198.035-.04.127-.014.205.056.078.07.113.159.078.198Z" fill="url(#j)"/><path d="M12.86 6.71a.67.67 0 1 0 0-1.339.67.67 0 0 0 0 1.339Z" fill="url(#k)"/><path d="M13.328 5.788c-.035.04-.127.015-.206-.055-.078-.07-.112-.16-.077-.199.035-.04.127-.014.206.056.078.07.112.159.077.198Z" fill="url(#l)"/><path d="M12.548 12.018a.67.67 0 1 0 0-1.338.67.67 0 0 0 0 1.338Z" fill="url(#m)"/><path d="M13.015 11.097c-.035.04-.127.014-.205-.056-.078-.07-.113-.159-.077-.198.035-.04.127-.014.205.056.078.07.113.159.077.198Z" fill="url(#n)"/><path d="M10.056 8.456a.67.67 0 1 0 0-1.339.67.67 0 0 0 0 1.339Z" fill="url(#o)"/><path d="M10.523 7.534c-.035.04-.127.015-.205-.055-.079-.07-.113-.16-.078-.199.036-.039.128-.014.206.056.078.07.113.16.077.198Z" fill="url(#p)"/><defs><linearGradient id="a" x1="4.486" y1="9.949" x2="11.741" y2="2.693" gradientUnits="userSpaceOnUse"><stop offset=".324" stop-color="#AC9CF2"/><stop offset=".326" stop-color="#AC9CF2"/><stop offset=".465" stop-color="#B1B3EA"/><stop offset=".613" stop-color="#B4C3E5"/><stop offset=".78" stop-color="#B6CDE2"/><stop offset="1" stop-color="#B7D0E1"/></linearGradient><linearGradient id="b" x1="15.609" y1="9.949" x2="8.354" y2="2.693" gradientUnits="userSpaceOnUse"><stop offset=".324" stop-color="#B2DBF5"/><stop offset=".443" stop-color="#C4E3F4"/><stop offset=".598" stop-color="#D4EAF4"/><stop offset=".771" stop-color="#DEEFF3"/><stop offset="1" stop-color="#E1F0F3"/></linearGradient><linearGradient id="c" x1="7" y1="10.491" x2="12.472" y2="10.491" gradientUnits="userSpaceOnUse"><stop offset=".324" stop-color="#D6CDFB"/><stop offset=".428" stop-color="#D9D4FA"/><stop offset=".655" stop-color="#DCDEF9"/><stop offset=".953" stop-color="#DDE1F9"/></linearGradient><linearGradient id="d" x1="13.095" y1="10.491" x2="7.623" y2="10.491" gradientUnits="userSpaceOnUse"><stop offset=".324" stop-color="#ECF2F2"/><stop offset=".365" stop-color="#EEF4F3"/><stop offset=".619" stop-color="#F8FAF6"/><stop offset=".953" stop-color="#FBFCF7"/></linearGradient><linearGradient id="e" x1="4.605" y1="15.054" x2="10.048" y2="15.054" gradientUnits="userSpaceOnUse"><stop offset=".324" stop-color="#6E89D3"/><stop offset=".326" stop-color="#6E89D3"/><stop offset=".5" stop-color="#6A83E3"/><stop offset=".695" stop-color="#6880ED"/><stop offset=".953" stop-color="#677FF0"/></linearGradient><linearGradient id="f" x1="15.489" y1="15.054" x2="10.047" y2="15.054" gradientUnits="userSpaceOnUse"><stop offset=".324" stop-color="#C4C5FC"/><stop offset=".544" stop-color="#C8CBF8"/><stop offset=".953" stop-color="#CACEF6"/></linearGradient><linearGradient id="g" x1="6.838" y1="6.607" x2="7.452" y2="5.417" gradientUnits="userSpaceOnUse"><stop stop-color="#718BD4"/><stop offset=".012" stop-color="#758ED5"/><stop offset=".058" stop-color="#7790D6"/><stop offset=".099" stop-color="#7A92D7"/><stop offset=".259" stop-color="#889DDD"/><stop offset=".473" stop-color="#9AAAE4"/><stop offset=".695" stop-color="#AEB9EC"/><stop offset="1" stop-color="#C6CBF5"/></linearGradient><linearGradient id="i" x1="7.12" y1="11.916" x2="7.733" y2="10.725" gradientUnits="userSpaceOnUse"><stop stop-color="#718BD4"/><stop offset=".012" stop-color="#758ED5"/><stop offset=".058" stop-color="#7790D6"/><stop offset=".099" stop-color="#7A92D7"/><stop offset=".259" stop-color="#889DDD"/><stop offset=".473" stop-color="#9AAAE4"/><stop offset=".695" stop-color="#AEB9EC"/><stop offset="1" stop-color="#C6CBF5"/></linearGradient><linearGradient id="k" x1="12.569" y1="6.607" x2="13.182" y2="5.417" gradientUnits="userSpaceOnUse"><stop stop-color="#718BD4"/><stop offset=".012" stop-color="#758ED5"/><stop offset=".058" stop-color="#7790D6"/><stop offset=".099" stop-color="#7A92D7"/><stop offset=".259" stop-color="#889DDD"/><stop offset=".473" stop-color="#9AAAE4"/><stop offset=".695" stop-color="#AEB9EC"/><stop offset="1" stop-color="#C6CBF5"/></linearGradient><linearGradient id="m" x1="12.256" y1="11.916" x2="12.87" y2="10.725" gradientUnits="userSpaceOnUse"><stop stop-color="#718BD4"/><stop offset=".012" stop-color="#758ED5"/><stop offset=".058" stop-color="#7790D6"/><stop offset=".099" stop-color="#7A92D7"/><stop offset=".259" stop-color="#889DDD"/><stop offset=".473" stop-color="#9AAAE4"/><stop offset=".695" stop-color="#AEB9EC"/><stop offset="1" stop-color="#C6CBF5"/></linearGradient><linearGradient id="o" x1="9.764" y1="8.353" x2="10.377" y2="7.163" gradientUnits="userSpaceOnUse"><stop stop-color="#718BD4"/><stop offset=".012" stop-color="#758ED5"/><stop offset=".058" stop-color="#7790D6"/><stop offset=".099" stop-color="#7A92D7"/><stop offset=".259" stop-color="#889DDD"/><stop offset=".473" stop-color="#9AAAE4"/><stop offset=".695" stop-color="#AEB9EC"/><stop offset="1" stop-color="#C6CBF5"/></linearGradient><radialGradient id="h" cx="0" cy="0" r="1" gradientUnits="userSpaceOnUse" gradientTransform="scale(.14475) rotate(42 -25.206 86.722)"><stop stop-color="#DADCF4"/><stop offset=".008" stop-color="#DADCF4"/><stop offset=".058" stop-color="#DADCF4"/><stop offset=".099" stop-color="#DADCF4"/><stop offset=".473" stop-color="#DADCF4"/><stop offset="1" stop-color="#DADCF4"/></radialGradient><radialGradient id="j" cx="0" cy="0" r="1" gradientUnits="userSpaceOnUse" gradientTransform="scale(.14475) rotate(42 -72 107.588)"><stop stop-color="#DADCF4"/><stop offset=".008" stop-color="#DADCF4"/><stop offset=".058" stop-color="#DADCF4"/><stop offset=".099" stop-color="#DADCF4"/><stop offset=".473" stop-color="#DADCF4"/><stop offset="1" stop-color="#DADCF4"/></radialGradient><radialGradient id="l" cx="0" cy="0" r="1" gradientUnits="userSpaceOnUse" gradientTransform="scale(.14475) rotate(42 -5.414 138.284)"><stop stop-color="#DADCF4"/><stop offset=".008" stop-color="#DADCF4"/><stop offset=".058" stop-color="#DADCF4"/><stop offset=".099" stop-color="#DADCF4"/><stop offset=".473" stop-color="#DADCF4"/><stop offset="1" stop-color="#DADCF4"/></radialGradient><radialGradient id="n" cx="0" cy="0" r="1" gradientUnits="userSpaceOnUse" gradientTransform="rotate(42 -7.854 22.264) scale(.14475)"><stop stop-color="#DADCF4"/><stop offset=".008" stop-color="#DADCF4"/><stop offset=".058" stop-color="#DADCF4"/><stop offset=".099" stop-color="#DADCF4"/><stop offset=".473" stop-color="#DADCF4"/><stop offset="1" stop-color="#DADCF4"/></radialGradient><radialGradient id="p" cx="0" cy="0" r="1" gradientUnits="userSpaceOnUse" gradientTransform="rotate(42 -4.46 17.237) scale(.14475)"><stop stop-color="#DADCF4"/><stop offset=".008" stop-color="#DADCF4"/><stop offset=".058" stop-color="#DADCF4"/><stop offset=".099" stop-color="#DADCF4"/><stop offset=".473" stop-color="#DADCF4"/><stop offset="1" stop-color="#DADCF4"/></radialGradient></defs></svg>